<svg id="visual" viewBox="0 0 900 450" width="900" height="450" xmlns="http://www.w3.org/2000/svg" xmlns:xlink="http://www.w3.org/1999/xlink" version="1.1"><rect x="0" y="0" width="900" height="450" fill="#fff"></rect><path d="M0 64L18.8 68.3C37.7 72.7 75.3 81.3 112.8 77.5C150.3 73.7 187.7 57.3 225.2 59.5C262.7 61.7 300.3 82.3 337.8 89.5C375.3 96.7 412.7 90.3 450.2 82.2C487.7 74 525.3 64 562.8 55.5C600.3 47 637.7 40 675.2 35.7C712.7 31.3 750.3 29.7 787.8 37C825.3 44.3 862.7 60.7 881.3 68.8L900 77L900 0L881.3 0C862.7 0 825.3 0 787.8 0C750.3 0 712.7 0 675.2 0C637.7 0 600.3 0 562.8 0C525.3 0 487.7 0 450.2 0C412.7 0 375.3 0 337.8 0C300.3 0 262.7 0 225.2 0C187.7 0 150.3 0 112.8 0C75.3 0 37.7 0 18.8 0L0 0Z" fill="#1b1b25" stroke-linecap="round" stroke-linejoin="miter"></path></svg>