<svg id="visual" viewBox="0 0 900 600" width="900" height="600" xmlns="http://www.w3.org/2000/svg" xmlns:xlink="http://www.w3.org/1999/xlink" version="1.1"><rect x="0" y="0" width="900" height="600" fill="#fff"></rect><path d="M0 549L15 551.3C30 553.7 60 558.3 90 559.7C120 561 150 559 180 560.3C210 561.7 240 566.3 270 558C300 549.7 330 528.3 360 526.5C390 524.7 420 542.3 450 547.8C480 553.3 510 546.7 540 547.3C570 548 600 556 630 559C660 562 690 560 720 551.2C750 542.3 780 526.7 810 528.2C840 529.7 870 548.3 885 557.7L900 567L900 601L885 601C870 601 840 601 810 601C780 601 750 601 720 601C690 601 660 601 630 601C600 601 570 601 540 601C510 601 480 601 450 601C420 601 390 601 360 601C330 601 300 601 270 601C240 601 210 601 180 601C150 601 120 601 90 601C60 601 30 601 15 601L0 601Z" fill="#ffcfcf" stroke-linecap="round" stroke-linejoin="miter"></path></svg>