<svg id="visual" viewBox="0 0 900 600" width="900" height="600" xmlns="http://www.w3.org/2000/svg" xmlns:xlink="http://www.w3.org/1999/xlink" version="1.1"><path d="M0 520L30 523.7C60 527.3 120 534.7 180 542.5C240 550.3 300 558.7 360 562.8C420 567 480 567 540 565.2C600 563.3 660 559.7 720 552.7C780 545.7 840 535.3 870 530.2L900 525L900 601L870 601C840 601 780 601 720 601C660 601 600 601 540 601C480 601 420 601 360 601C300 601 240 601 180 601C120 601 60 601 30 601L0 601Z" fill="#FBE1D9" stroke-linecap="round" stroke-linejoin="miter"></path></svg>