<svg id="visual" viewBox="0 0 900 600" width="900" height="600" xmlns="http://www.w3.org/2000/svg" xmlns:xlink="http://www.w3.org/1999/xlink" version="1.1"><rect x="0" y="0" width="900" height="600" fill="#fff"></rect><path d="M0 272L30 249.2C60 226.3 120 180.7 180 147.3C240 114 300 93 360 94C420 95 480 118 540 129.7C600 141.3 660 141.7 720 139.3C780 137 840 132 870 129.5L900 127L900 0L870 0C840 0 780 0 720 0C660 0 600 0 540 0C480 0 420 0 360 0C300 0 240 0 180 0C120 0 60 0 30 0L0 0Z" fill="#ffcfcf" stroke-linecap="round" stroke-linejoin="miter"></path></svg>