<svg id="visual" viewBox="0 0 900 450" width="900" height="450" xmlns="http://www.w3.org/2000/svg" xmlns:xlink="http://www.w3.org/1999/xlink" version="1.1"><rect x="0" y="0" width="900" height="450" fill="#fff"></rect><path d="M0 405L18.8 405.5C37.7 406 75.3 407 112.8 384.8C150.3 362.7 187.7 317.3 225.2 295C262.7 272.7 300.3 273.3 337.8 298.2C375.3 323 412.7 372 450.2 393.7C487.7 415.3 525.3 409.7 562.8 401.5C600.3 393.3 637.7 382.7 675.2 382.8C712.7 383 750.3 394 787.8 402C825.3 410 862.7 415 881.3 417.5L900 420L900 451L881.3 451C862.7 451 825.3 451 787.8 451C750.3 451 712.7 451 675.2 451C637.7 451 600.3 451 562.8 451C525.3 451 487.7 451 450.2 451C412.7 451 375.3 451 337.8 451C300.3 451 262.7 451 225.2 451C187.7 451 150.3 451 112.8 451C75.3 451 37.7 451 18.8 451L0 451Z" fill="#fff4ea" stroke-linecap="round" stroke-linejoin="miter"></path></svg>