<svg id="visual" viewBox="0 0 960 540" width="960" height="540" xmlns="http://www.w3.org/2000/svg" xmlns:xlink="http://www.w3.org/1999/xlink" version="1.1"><rect x="0" y="0" width="960" height="540" fill="#fff"></rect><path d="M0 340L22.8 352C45.7 364 91.3 388 137 395.5C182.7 403 228.3 394 274 387.8C319.7 381.7 365.3 378.3 411.2 387.7C457 397 503 419 548.8 413.7C594.7 408.3 640.3 375.7 686 375.3C731.7 375 777.3 407 823 422.3C868.7 437.7 914.3 436.3 937.2 435.7L960 435L960 541L937.2 541C914.3 541 868.7 541 823 541C777.3 541 731.7 541 686 541C640.3 541 594.7 541 548.8 541C503 541 457 541 411.2 541C365.3 541 319.7 541 274 541C228.3 541 182.7 541 137 541C91.3 541 45.7 541 22.8 541L0 541Z" fill="#efb1b1" stroke-linecap="round" stroke-linejoin="miter"></path></svg>