<svg id="visual" viewBox="0 0 960 540" width="960" height="540" xmlns="http://www.w3.org/2000/svg" xmlns:xlink="http://www.w3.org/1999/xlink" version="1.1"><rect x="0" y="0" width="960" height="540" fill="#fff"></rect><path d="M0 198L22.8 186C45.7 174 91.3 150 137 142.5C182.7 135 228.3 144 274 150.2C319.7 156.3 365.3 159.7 411.2 150.3C457 141 503 119 548.8 124.3C594.7 129.7 640.3 162.3 686 162.7C731.7 163 777.3 131 823 115.7C868.7 100.3 914.3 101.7 937.2 102.3L960 103L960 0L937.2 0C914.3 0 868.7 0 823 0C777.3 0 731.7 0 686 0C640.3 0 594.7 0 548.8 0C503 0 457 0 411.2 0C365.3 0 319.7 0 274 0C228.3 0 182.7 0 137 0C91.3 0 45.7 0 22.8 0L0 0Z" fill="#efb1b1" stroke-linecap="round" stroke-linejoin="miter"></path></svg>