<svg id="visual" viewBox="0 0 1000 100" width="1000" height="100" xmlns="http://www.w3.org/2000/svg" xmlns:xlink="http://www.w3.org/1999/xlink" version="1.1"><rect x="0" y="0" width="1000" height="100" fill="#fff"></rect><path d="M0 43L13.8 44.5C27.7 46 55.3 49 83.2 48.3C111 47.7 139 43.3 166.8 37.5C194.7 31.7 222.3 24.3 250 22.8C277.7 21.3 305.3 25.7 333.2 34C361 42.3 389 54.7 416.8 53.2C444.7 51.7 472.3 36.3 500 35C527.7 33.7 555.3 46.3 583.2 55.5C611 64.7 639 70.3 666.8 74.3C694.7 78.3 722.3 80.7 750 73.7C777.7 66.7 805.3 50.3 833.2 48.7C861 47 889 60 916.8 67.7C944.7 75.3 972.3 77.7 986.2 78.8L1000 80L1000 101L986.2 101C972.3 101 944.7 101 916.8 101C889 101 861 101 833.2 101C805.3 101 777.7 101 750 101C722.3 101 694.7 101 666.8 101C639 101 611 101 583.2 101C555.3 101 527.7 101 500 101C472.3 101 444.7 101 416.8 101C389 101 361 101 333.2 101C305.3 101 277.7 101 250 101C222.3 101 194.7 101 166.8 101C139 101 111 101 83.2 101C55.3 101 27.7 101 13.8 101L0 101Z" fill="#222231" stroke-linecap="round" stroke-linejoin="miter"></path></svg>