<svg id="visual" viewBox="0 0 900 200" width="900" height="200" xmlns="http://www.w3.org/2000/svg" xmlns:xlink="http://www.w3.org/1999/xlink" version="1.1"><path d="M0 80L25 78C50 76 100 72 150 76.2C200 80.3 250 92.7 300 102C350 111.3 400 117.7 450 111.3C500 105 550 86 600 77.2C650 68.3 700 69.7 750 71.3C800 73 850 75 875 76L900 77L900 201L875 201C850 201 800 201 750 201C700 201 650 201 600 201C550 201 500 201 450 201C400 201 350 201 300 201C250 201 200 201 150 201C100 201 50 201 25 201L0 201Z" fill="#15151d" stroke-linecap="round" stroke-linejoin="miter"></path></svg>