<svg id="visual" viewBox="0 0 900 600" width="900" height="600" xmlns="http://www.w3.org/2000/svg" xmlns:xlink="http://www.w3.org/1999/xlink" version="1.1"><rect x="0" y="0" width="900" height="600" fill="#fff"></rect><g transform="translate(445.7737229243617 312.58723861755135)"><path d="M105.5 -169.9C138 -163.9 166.4 -138.2 181.5 -106.6C196.6 -75 198.3 -37.5 191.4 -4C184.4 29.5 168.9 59 150.4 84.7C131.9 110.4 110.4 132.3 84.9 141C59.3 149.6 29.7 145.1 0.7 144C-28.3 142.8 -56.7 145 -79.8 134.9C-102.9 124.8 -120.7 102.4 -139.9 77.9C-159 53.3 -179.5 26.7 -185.2 -3.2C-190.8 -33.2 -181.6 -66.3 -163.6 -92.9C-145.6 -119.4 -118.8 -139.4 -90.1 -147.5C-61.3 -155.6 -30.7 -151.8 2.9 -156.8C36.5 -161.9 73 -175.8 105.5 -169.9" fill="#f4f4f4"></path></g></svg>