<svg id="visual" viewBox="0 0 900 450" width="900" height="450" xmlns="http://www.w3.org/2000/svg" xmlns:xlink="http://www.w3.org/1999/xlink" version="1.1"><rect x="0" y="0" width="900" height="450" fill="#fff"></rect><path d="M0 43L18.8 42.5C37.7 42 75.3 41 112.8 63.2C150.3 85.3 187.7 130.7 225.2 153C262.7 175.3 300.3 174.7 337.8 149.8C375.3 125 412.7 76 450.2 54.3C487.7 32.7 525.3 38.3 562.8 46.5C600.3 54.7 637.7 65.3 675.2 65.2C712.7 65 750.3 54 787.8 46C825.3 38 862.7 33 881.3 30.5L900 28L900 0L881.3 0C862.7 0 825.3 0 787.8 0C750.3 0 712.7 0 675.2 0C637.7 0 600.3 0 562.8 0C525.3 0 487.7 0 450.2 0C412.7 0 375.3 0 337.8 0C300.3 0 262.7 0 225.2 0C187.7 0 150.3 0 112.8 0C75.3 0 37.7 0 18.8 0L0 0Z" fill="#fff4ea" stroke-linecap="round" stroke-linejoin="miter"></path></svg>